<?xml version="1.0" encoding="UTF-8" standalone="no"?><!DOCTYPE svg PUBLIC "-//W3C//DTD SVG 1.1//EN" "http://www.w3.org/Graphics/SVG/1.1/DTD/svg11.dtd"><svg width="100%" height="100%" viewBox="0 0 199 261" version="1.1" xmlns="http://www.w3.org/2000/svg" xmlns:xlink="http://www.w3.org/1999/xlink" xml:space="preserve" xmlns:serif="http://www.serif.com/" style="fill-rule:evenodd;clip-rule:evenodd;stroke-linejoin:round;stroke-miterlimit:2;"><g><path d="M145.288,94.25c0.833,0.833 1.979,1.562 3.438,2.188c1.458,0.625 2.771,0.938 3.938,0.938l20,0c1.167,0 2.167,-0.417 3,-1.25c0.833,-0.833 1.25,-1.875 1.25,-3.125l0,-3c0,-1.083 -0.417,-2.042 -1.25,-2.875c-0.833,-0.833 -1.833,-1.25 -3,-1.25l-17.75,0c-1.25,0 -2.292,-0.208 -3.125,-0.625c-0.833,-0.417 -1.25,-0.958 -1.25,-1.625c0,-0.5 -0.417,-0.958 -1.25,-1.375c-0.833,-0.417 -1.833,-0.625 -3,-0.625l-2.75,0c-1.167,0 -2.167,0.333 -3,1c-0.833,0.667 -1.25,1.417 -1.25,2.25c0,0.917 0.292,2 0.875,3.25c0.583,1.25 1.292,2.292 2.125,3.125l3,3Zm-14.75,14.125c0.667,-0.75 1.292,-1.854 1.875,-3.312c0.583,-1.458 0.875,-2.771 0.875,-3.938l0,-20.875c0,-1.167 0.438,-2.188 1.312,-3.062c0.875,-0.875 1.896,-1.312 3.062,-1.312l40.625,0c1.167,0 2.167,0.438 3,1.312c0.833,0.875 1.25,1.896 1.25,3.062l0,18.625c0,1.25 -0.417,2.292 -1.25,3.125c-0.833,0.833 -1.833,1.25 -3,1.25l-29.125,0c-1.167,0 -2.188,0.417 -3.062,1.25c-0.875,0.833 -1.312,1.875 -1.312,3.125l0,2.75c0,1.167 0.438,2.188 1.312,3.062c0.875,0.875 1.896,1.312 3.062,1.312l31.375,0c1.25,0 2.604,-0.292 4.062,-0.875c1.458,-0.583 2.646,-1.333 3.562,-2.25l2.875,-3.125c0.917,-0.75 1.646,-1.833 2.188,-3.25c0.542,-1.417 0.812,-2.75 0.812,-4l0,-21c0,-1.167 0.208,-2.188 0.625,-3.062c0.417,-0.875 0.875,-1.312 1.375,-1.312c1.417,0 2.125,-1.375 2.125,-4.125l0,-3c0,-1.25 -0.188,-2.271 -0.562,-3.062c-0.375,-0.792 -0.896,-1.188 -1.562,-1.188c-0.5,0 -0.958,-0.292 -1.375,-0.875c-0.417,-0.583 -0.625,-1.25 -0.625,-2c0,-0.667 -0.417,-1.271 -1.25,-1.812c-0.833,-0.542 -1.875,-0.812 -3.125,-0.812l-2.625,0c-1.167,0 -2.208,0.271 -3.125,0.812c-0.917,0.542 -1.375,1.146 -1.375,1.812c0,0.833 -0.417,1.521 -1.25,2.062c-0.833,0.542 -1.833,0.812 -3,0.812l-40.625,0c-1.167,0 -2.188,-0.438 -3.062,-1.312c-0.875,-0.875 -1.312,-1.896 -1.312,-3.062l0,-0.375c0,-1.167 0.438,-2.188 1.312,-3.062c0.875,-0.875 1.896,-1.312 3.062,-1.312l56.25,0c1.167,0 2.167,-0.438 3,-1.312c0.833,-0.875 1.25,-1.896 1.25,-3.062l0,-2.75c0,-1.167 -0.417,-2.167 -1.25,-3c-0.833,-0.833 -1.833,-1.25 -3,-1.25l-56.25,0c-1.167,0 -2.188,-0.375 -3.062,-1.125c-0.875,-0.75 -1.312,-1.583 -1.312,-2.5c0,-1.083 0.417,-1.958 1.25,-2.625c0.833,-0.667 1.875,-1 3.125,-1l56.25,0c1.167,0 2.167,-0.438 3,-1.312c0.833,-0.875 1.25,-1.896 1.25,-3.062l0,-2.875c0,-1.167 -0.417,-2.167 -1.25,-3c-0.833,-0.833 -1.833,-1.25 -3,-1.25l-56.25,0c-1.167,0 -2.188,-0.375 -3.062,-1.125c-0.875,-0.75 -1.312,-1.625 -1.312,-2.625c0,-1 0.438,-1.875 1.312,-2.625c0.875,-0.75 1.896,-1.125 3.062,-1.125l56.25,0c1.167,0 2.167,-0.417 3,-1.25c0.833,-0.833 1.25,-1.833 1.25,-3l0,-2.875c0,-1.167 -0.417,-2.167 -1.25,-3c-0.833,-0.833 -1.833,-1.25 -3,-1.25l-56.25,0c-1.167,0 -2.188,-0.312 -3.062,-0.938c-0.875,-0.625 -1.312,-1.396 -1.312,-2.312c0,-0.833 -0.417,-1.562 -1.25,-2.188c-0.833,-0.625 -1.917,-0.938 -3.25,-0.938l-2.75,0c-1.25,0 -2.292,0.312 -3.125,0.938c-0.833,0.625 -1.25,1.354 -1.25,2.188c0,0.917 -0.333,1.688 -1,2.312c-0.667,0.625 -1.5,0.938 -2.5,0.938c-0.917,0 -1.708,0.417 -2.375,1.25c-0.667,0.833 -1,1.833 -1,3l0,2.875c0,1.167 0.333,2.167 1,3c0.667,0.833 1.458,1.25 2.375,1.25c1.083,0 1.917,0.375 2.5,1.125c0.583,0.75 0.875,1.625 0.875,2.625c0,1 -0.292,1.875 -0.875,2.625c-0.583,0.75 -1.417,1.125 -2.5,1.125c-0.917,0 -1.708,0.417 -2.375,1.25c-0.667,0.833 -1,1.833 -1,3l0,2.875c0,1.167 0.333,2.188 1,3.062c0.667,0.875 1.458,1.312 2.375,1.312c1,0 1.833,0.333 2.5,1c0.667,0.667 1,1.542 1,2.625c0,1 -0.333,1.854 -1,2.562c-0.667,0.708 -1.5,1.062 -2.5,1.062c-0.917,0 -1.708,0.417 -2.375,1.25c-0.667,0.833 -1,1.833 -1,3l0,2.75c0,1.167 0.333,2.188 1,3.062c0.667,0.875 1.458,1.312 2.375,1.312c1,0 1.833,0.438 2.5,1.312c0.667,0.875 1,1.896 1,3.062l0,1.375c0,1.167 -0.333,1.958 -1,2.375c-0.667,0.667 -1.5,1 -2.5,1c-0.917,0 -1.708,0.417 -2.375,1.25c-0.667,0.833 -1,1.833 -1,3l0,2.75c0,1.167 0.333,2.188 1,3.062c0.667,0.875 1.458,1.312 2.375,1.312c1,0 1.833,0.312 2.5,0.938c0.667,0.625 1,1.479 1,2.562l0,19.375c0,1.25 -0.333,2.292 -1,3.125c-0.667,0.833 -1.5,1.25 -2.5,1.25c-0.917,0 -1.708,0.417 -2.375,1.25c-0.667,0.833 -1,1.875 -1,3.125l0,2.75c0,1.167 0.417,2.188 1.25,3.062c0.833,0.875 1.833,1.312 3,1.312l0.625,0c1.25,0 2.542,-0.312 3.875,-0.938c1.333,-0.625 2.5,-1.354 3.5,-2.188l3.5,-3.125Z" style="fill:#f06543;fill-rule:nonzero;"/><path d="M125.288,255.671c0,1.167 0.417,2.188 1.25,3.062c0.833,0.875 1.875,1.312 3.125,1.312l54.875,0c1.25,0 2.583,-0.292 4,-0.875c1.417,-0.583 2.583,-1.333 3.5,-2.25l3.125,-3.25c0.75,-0.75 1.438,-1.854 2.062,-3.312c0.625,-1.458 0.938,-2.771 0.938,-3.938l0,-96.875c0,-1.167 -0.417,-2.167 -1.25,-3c-0.833,-0.833 -1.833,-1.25 -3,-1.25l-74.875,0c-1.167,0 -2.167,0.417 -3,1.25c-0.833,0.833 -1.25,1.833 -1.25,3l0,2.875c0,1.25 0.417,2.292 1.25,3.125c0.833,0.833 1.833,1.25 3,1.25l63.25,0c1.167,0 2.167,0.438 3,1.312c0.833,0.875 1.25,1.938 1.25,3.188l0,82.625c0,1.333 -0.417,2.417 -1.25,3.25c-0.833,0.833 -1.833,1.25 -3,1.25l-52.625,0c-1.25,0 -2.292,0.417 -3.125,1.25c-0.833,0.833 -1.25,1.875 -1.25,3.125l0,2.875Zm-6.25,-77.75l56.25,0c1.167,0 2.167,-0.458 3,-1.375c0.833,-0.917 1.25,-1.958 1.25,-3.125l0,-2.625c0,-1.25 -0.417,-2.312 -1.25,-3.188c-0.833,-0.875 -1.833,-1.312 -3,-1.312l-56.25,0c-1.167,0 -2.167,0.438 -3,1.312c-0.833,0.875 -1.25,1.938 -1.25,3.188l0,2.625c0,1.167 0.417,2.208 1.25,3.125c0.833,0.917 1.833,1.375 3,1.375Zm57.5,56.125c0.917,-0.75 1.646,-1.875 2.188,-3.375c0.542,-1.5 0.812,-2.917 0.812,-4.25l0,-33.75c0,-1.167 -0.417,-2.167 -1.25,-3c-0.833,-0.833 -1.833,-1.25 -3,-1.25l-56.25,0c-1.167,0 -2.167,0.417 -3,1.25c-0.833,0.833 -1.25,1.833 -1.25,3l0,43.125c0,1.167 0.333,2.208 1,3.125c0.667,0.917 1.458,1.375 2.375,1.375l47.875,0c1.167,0 2.479,-0.312 3.938,-0.938c1.458,-0.625 2.646,-1.396 3.562,-2.312l3,-3Zm-50.125,-9.875l0,-19.875c0,-1.25 0.438,-2.292 1.312,-3.125c0.875,-0.833 1.938,-1.25 3.188,-1.25l32.5,0c1.333,0 2.417,0.417 3.25,1.25c0.833,0.833 1.25,1.875 1.25,3.125l0,19.875c0,1.25 -0.417,2.292 -1.25,3.125c-0.833,0.833 -1.917,1.25 -3.25,1.25l-32.5,0c-1.333,0 -2.417,-0.417 -3.25,-1.25c-0.833,-0.833 -1.25,-1.875 -1.25,-3.125Z" style="fill:#f06543;fill-rule:nonzero;"/><path d="M14.5,107.062c0,1.167 0.417,2.188 1.25,3.062c0.833,0.875 1.833,1.312 3,1.312l17.25,0c1.333,0 2.667,-0.167 4,-0.5c1.333,-0.333 2.708,-0.958 4.125,-1.875l3.125,-2c2.5,-1.667 4.375,-3.792 5.625,-6.375l24.25,-52.375c0.583,-1.25 1.042,-2.625 1.375,-4.125c0.333,-1.5 0.5,-3.458 0.5,-5.875c0,-1.333 -0.375,-2.396 -1.125,-3.188c-0.75,-0.792 -1.833,-1.188 -3.25,-1.188l-69.75,0c-1.333,0 -2.396,0.375 -3.188,1.125c-0.792,0.75 -1.188,1.833 -1.188,3.25l0,2.875c0,1.333 0.375,2.396 1.125,3.188c0.75,0.792 1.833,1.188 3.25,1.188l56.375,0c1.917,0 2.875,0.708 2.875,2.125c0,0.25 -0.021,0.521 -0.062,0.812c-0.042,0.292 -0.146,0.646 -0.312,1.062l-21.625,46.25c-0.667,1.417 -1.542,2.438 -2.625,3.062c-1.083,0.625 -2.292,0.938 -3.625,0.938l-17.125,0c-1.167,0 -2.167,0.417 -3,1.25c-0.833,0.833 -1.25,1.875 -1.25,3.125l0,2.875Zm-5.75,-92.125l62.125,0c1.25,0 2.312,-0.438 3.188,-1.312c0.875,-0.875 1.312,-1.896 1.312,-3.062l0,-2.875c0,-1.25 -0.438,-2.292 -1.312,-3.125c-0.875,-0.833 -1.938,-1.25 -3.188,-1.25l-62.125,0c-1.167,0 -2.167,0.417 -3,1.25c-0.833,0.833 -1.25,1.875 -1.25,3.125l0,2.875c0,1.167 0.417,2.188 1.25,3.062c0.833,0.875 1.833,1.312 3,1.312Z" style="fill:#f06543;fill-rule:nonzero;"/><path d="M54.25,164.983l-4.25,0c-1.25,0 -2.292,-0.417 -3.125,-1.25c-0.833,-0.833 -1.25,-1.833 -1.25,-3l0,-8.5c0,-1.167 -0.417,-2.146 -1.25,-2.938c-0.833,-0.792 -1.833,-1.188 -3,-1.188l-2.75,0c-1.167,0 -2.208,0.396 -3.125,1.188c-0.917,0.792 -1.375,1.771 -1.375,2.938l0,8.5c0,1.167 -0.396,2.167 -1.188,3c-0.792,0.833 -1.771,1.25 -2.938,1.25l-23.625,0c-1.25,0 -2.271,0.396 -3.062,1.188c-0.792,0.792 -1.188,1.771 -1.188,2.938l0,2.625c0,1.25 0.396,2.292 1.188,3.125c0.792,0.833 1.812,1.25 3.062,1.25l23.625,0c1.167,0 2.146,0.396 2.938,1.188c0.792,0.792 1.188,1.812 1.188,3.062l0,72.75c0,1.167 0.458,2.146 1.375,2.938c0.917,0.792 1.958,1.188 3.125,1.188l2.75,0c1.167,0 2.167,-0.396 3,-1.188c0.833,-0.792 1.25,-1.771 1.25,-2.938l0,-72.75c0,-1.25 0.417,-2.271 1.25,-3.062c0.833,-0.792 1.875,-1.188 3.125,-1.188l24.875,0c1.167,0 2.167,-0.417 3,-1.25c0.833,-0.833 1.25,-1.875 1.25,-3.125l0,-2.625c0,-0.667 -0.125,-1.25 -0.375,-1.75c-0.583,0.333 -1.375,0.5 -2.375,0.5l-17.625,0c-2.333,0 -3.833,-0.958 -4.5,-2.875Zm-46.125,76.125c0,1.25 -0.5,2.271 -1.5,3.062c-1,0.792 -2,1.188 -3,1.188c-1,0 -1.854,0.396 -2.562,1.188c-0.708,0.792 -1.062,1.771 -1.062,2.938l0,2.875c0,1.083 0.458,2.042 1.375,2.875c0.917,0.833 1.958,1.25 3.125,1.25l9.375,0c1.333,0 2.396,-0.396 3.188,-1.188c0.792,-0.792 1.188,-1.812 1.188,-3.062l6.25,-64.25c0,-1.167 -0.396,-2.146 -1.188,-2.938c-0.792,-0.792 -1.812,-1.188 -3.062,-1.188l-2.875,0c-1.25,0 -2.292,0.396 -3.125,1.188c-0.833,0.792 -1.25,1.771 -1.25,2.938l-4.875,53.125Zm52.875,11.125c0,1.25 0.396,2.271 1.188,3.062c0.792,0.792 1.854,1.188 3.188,1.188l9.625,0c1.167,0 2.208,-0.417 3.125,-1.25c0.917,-0.833 1.375,-1.792 1.375,-2.875l0,-2.875c0,-1.167 -0.354,-2.146 -1.062,-2.938c-0.708,-0.792 -1.562,-1.188 -2.562,-1.188c-1,0 -2.042,-0.396 -3.125,-1.188c-1.083,-0.792 -1.625,-1.812 -1.625,-3.062l-4.875,-53.125c0,-1.167 -0.396,-2.146 -1.188,-2.938c-0.792,-0.792 -1.729,-1.188 -2.812,-1.188l-3,0c-1.333,0 -2.417,0.396 -3.25,1.188c-0.833,0.792 -1.25,1.771 -1.25,2.938l6.25,64.25Zm12.625,-87.75c1.25,0 2.25,-0.375 3,-1.125c0.75,-0.75 1.125,-1.75 1.125,-3l0,-7.375c0,-1.25 -0.375,-2.25 -1.125,-3c-0.75,-0.75 -1.75,-1.125 -3,-1.125c-2.667,0 -4,1.375 -4,4.125l0,7.375c0,2.75 1.333,4.125 4,4.125Zm-12.125,0c2.667,0 4,-1.375 4,-4.125l0,-7.375c0,-2.75 -1.333,-4.125 -4,-4.125c-1.25,0 -2.25,0.375 -3,1.125c-0.75,0.75 -1.125,1.75 -1.125,3l0,7.375c0,1.25 0.375,2.25 1.125,3c0.75,0.75 1.75,1.125 3,1.125Z" style="fill:#f06543;fill-rule:nonzero;"/></g></svg>